<svg xmlns="http://www.w3.org/2000/svg" xmlns:xlink="http://www.w3.org/1999/xlink" viewBox="0 0 223.44 249.05"><defs><style>.cls-1{isolation:isolate;}.cls-2{opacity:0.4;mix-blend-mode:multiply;fill:url(#linear-gradient);}.cls-3{fill:#212683;}.cls-4{fill:#9dcc96;}.cls-4,.cls-5,.cls-6{stroke:#212683;stroke-miterlimit:10;stroke-width:6px;}.cls-5{fill:#cec09f;}.cls-6{fill:none;}</style><linearGradient id="linear-gradient" y1="134.89" x2="223.44" y2="134.89" gradientUnits="userSpaceOnUse"><stop offset="0" stop-color="#efa6c2"/><stop offset="1" stop-color="#96cdbd"/></linearGradient></defs><title>Mobile App </title><g class="cls-1"><g id="Layer_2" data-name="Layer 2"><g id="Layer_1-2" data-name="Layer 1"><path class="cls-2" d="M184.76,119.53a53.78,53.78,0,1,0-72.61-77.06,68.07,68.07,0,1,0-21.07,116,68.09,68.09,0,1,0,93.69-38.95Z"/><path class="cls-3" d="M206.78,24.3h-2.35V22a2.9,2.9,0,0,0-5.8,0V24.3h-2.35a2.9,2.9,0,0,0,0,5.8h2.35v2.35a2.9,2.9,0,0,0,5.8,0V30.1h2.35a2.9,2.9,0,0,0,0-5.8Z"/><path class="cls-3" d="M198.63,174.45h-2.35V172.1a2.9,2.9,0,0,0-5.8,0v2.35h-2.35a2.9,2.9,0,0,0,0,5.8h2.35v2.35a2.9,2.9,0,0,0,5.8,0v-2.35h2.35a2.9,2.9,0,0,0,0-5.8Z"/><path class="cls-3" d="M17.61,75.32H15.25V73a2.9,2.9,0,0,0-5.8,0v2.35H7.1a2.9,2.9,0,0,0,0,5.8H9.46v2.35a2.9,2.9,0,0,0,5.8,0V81.12h2.35a2.9,2.9,0,0,0,0-5.8Z"/><path class="cls-4" d="M174.1,44.7V14.21A11.21,11.21,0,0,0,162.88,3H54A11.21,11.21,0,0,0,42.8,14.21v199A11.21,11.21,0,0,0,54,224.44H162.88a11.21,11.21,0,0,0,11.22-11.21V69.2"/><path class="cls-5" d="M122.85,3H69.51l5.66,14.78a6.89,6.89,0,0,0,6.44,4.43h53.66a6.89,6.89,0,0,0,6.44-4.43L147.38,3Z"/><path class="cls-5" d="M99.29,56l-1.75,1.75a3.76,3.76,0,0,1-5.32,0L90.46,56a16.4,16.4,0,0,0-23.19,0h0a16.4,16.4,0,0,0,0,23.19l4.41,4.41L92.08,104a4,4,0,0,0,5.59,0l20.4-20.4,4.41-4.41a16.4,16.4,0,0,0,0-23.19h0A16.4,16.4,0,0,0,99.29,56Z"/><path class="cls-3" d="M57.26,87.83c6.61,0,13.23.09,19.85,0,3.72-.05,7.15-.7,10.15-3.1,2-1.58,5.06-6.61,7.47-6.64,1.72,0,3.74,3,4.89,4.14L108,90.61l12.59,12.59c2.28,2.28,5.81-1.26,3.54-3.54L110.84,86.38l-8.71-8.71c-1.42-1.42-2.95-3.44-4.82-4.32C93.39,71.51,90.58,74.48,88,77c-3.16,3.16-5.67,5.63-10.46,5.82-6.76.26-13.57,0-20.33,0-3.22,0-3.22,5,0,5Z"/><line class="cls-6" x1="62.46" y1="121.7" x2="154.95" y2="121.7"/><line class="cls-6" x1="62.46" y1="141.98" x2="117.45" y2="141.98"/><line class="cls-6" x1="62.46" y1="162.26" x2="99.45" y2="162.26"/><line class="cls-6" x1="62.46" y1="182.53" x2="154.95" y2="182.53"/><line class="cls-6" x1="125.12" y1="141.98" x2="154.95" y2="141.98"/><line class="cls-6" x1="108.44" y1="162.26" x2="154.95" y2="162.26"/><circle class="cls-3" cx="174.1" cy="56.6" r="3.21" transform="translate(10.97 139.68) rotate(-45)"/><line class="cls-6" x1="155.95" y1="3" x2="155.95" y2="75.25"/><line class="cls-6" x1="155.95" y1="83.7" x2="155.95" y2="96.2"/></g></g></g></svg>