<svg xmlns="http://www.w3.org/2000/svg" viewBox="0 0 64 64"><defs><style>.cls-1{fill:#00bebd;}.cls-2{fill:#50d9d7;}.cls-3{fill:#00aaa8;}.cls-4{fill:#ffac00;}.cls-5{fill:#93e6e5;}.cls-6{fill:#ea9807;}.cls-7{fill:none;stroke:#fdfdfd;stroke-linecap:round;stroke-linejoin:round;stroke-width:2px;}</style></defs><title>Ink Pen</title><g id="Ink_Pen" data-name="Ink Pen"><path class="cls-1" d="M40,55c0,5-8.95,9-20,9S0,60,0,55c0-7.43,18.62-11.45,31.45-7.37C36.62,49.25,40,52,40,55Z"/><path class="cls-2" d="M62.47,1.53a5.25,5.25,0,0,1,.2,7.2L31,44,20,33,55.28,1.33A5.24,5.24,0,0,1,62.47,1.53Z"/><path class="cls-3" d="M31.45,47.63a12.05,12.05,0,0,1-3,4.86C24.77,56.21,14.27,57,9,57a2,2,0,0,1-2-2c0-1.63.13-4.31.42-7C14.36,45.46,24.23,45.34,31.45,47.63Z"/><path class="cls-4" d="M27.07,51.07C23.89,54.26,13.49,55,9,55c0-4.48.74-14.89,3.93-18.07A10,10,0,0,1,27.07,51.07Z"/><path class="cls-1" d="M21,34l9,9a2.83,2.83,0,0,0,4-4l-9-9a2.83,2.83,0,0,0-4,4Z"/><ellipse class="cls-1" cx="39" cy="55" rx="10" ry="6"/><path class="cls-1" d="M14,18C14,14.69,8,8,8,8S2,14.69,2,18a6,6,0,0,0,12,0Z"/><path class="cls-5" d="M8,22c-3.81,0-5.1-5-3-5a1,1,0,0,1,1,1,2,2,0,0,0,2,2A1,1,0,0,1,8,22Z"/><path class="cls-6" d="M21,41a13.68,13.68,0,0,1-6.37,11.6L10.93,55C9.74,55,9,55,9,55s0-.44,0-1.2l4.54-2.89A11.67,11.67,0,0,0,19,41,1,1,0,0,1,21,41Z"/><line class="cls-7" x1="35" y1="29" x2="44" y2="20"/></g></svg>